<mxfile host="65bd71144e">
    <diagram id="bVcXtUsdojeSgyOnRT37" name="Page-1">
        <mxGraphModel dx="2393" dy="1226" grid="1" gridSize="10" guides="1" tooltips="1" connect="1" arrows="1" fold="1" page="1" pageScale="1" pageWidth="827" pageHeight="1169" math="0" shadow="0">
            <root>
                <mxCell id="0"/>
                <mxCell id="1" parent="0"/>
                <mxCell id="2" value="&lt;div style=&quot;font-size: 30px&quot;&gt;A heap-based buffer overflow vulnerability exists in the XML&lt;/div&gt;&lt;div style=&quot;font-size: 30px&quot;&gt;Decompression EnumerationUncompressor::UncompressItem functionality of&lt;/div&gt;&lt;div style=&quot;font-size: 30px&quot;&gt;AT&amp;amp;T Labs&amp;amp;#8217; Xmill 0.7. A specially crafted XMI file can lead to remote&lt;/div&gt;&lt;div style=&quot;font-size: 30px&quot;&gt;code execution.&amp;nbsp;&lt;span&gt;An attacker can provide a malicious file to trigger&lt;/span&gt;&lt;/div&gt;&lt;div style=&quot;font-size: 30px&quot;&gt;this vulnerability&lt;/div&gt;" style="text;html=1;align=center;verticalAlign=middle;resizable=0;points=[];autosize=1;strokeColor=none;fillColor=none;fontSize=30;" vertex="1" parent="1">
                    <mxGeometry x="-400" y="75" width="1040" height="190" as="geometry"/>
                </mxCell>
                <mxCell id="3" value="&lt;div style=&quot;font-size: 30px&quot;&gt;A &lt;font color=&quot;#ff0000&quot;&gt;heap-based&lt;/font&gt; buffer &lt;font color=&quot;#0000ff&quot;&gt;overflow&lt;/font&gt; vulnerability exists in the XML&lt;/div&gt;&lt;div style=&quot;font-size: 30px&quot;&gt;Decompression EnumerationUncompressor::UncompressItem functionality of&lt;/div&gt;&lt;div style=&quot;font-size: 30px&quot;&gt;&lt;font color=&quot;#00ff00&quot;&gt;AT&amp;amp;T Labs&lt;/font&gt;&amp;amp;#8217; Xmill 0.7. A specially crafted XMI file can lead to remote&lt;/div&gt;&lt;div style=&quot;font-size: 30px&quot;&gt;&lt;font color=&quot;#ffff00&quot;&gt;code execution&lt;/font&gt;.&amp;nbsp;&lt;span&gt;An attacker can provide a malicious file to trigger&lt;/span&gt;&lt;/div&gt;&lt;div style=&quot;font-size: 30px&quot;&gt;this vulnerability&lt;/div&gt;" style="text;html=1;align=center;verticalAlign=middle;resizable=0;points=[];autosize=1;strokeColor=none;fillColor=none;fontSize=30;" vertex="1" parent="1">
                    <mxGeometry x="1250" y="75" width="1040" height="190" as="geometry"/>
                </mxCell>
                <mxCell id="5" value="" style="endArrow=classic;html=1;fontSize=30;strokeWidth=7;" edge="1" parent="1">
                    <mxGeometry width="50" height="50" relative="1" as="geometry">
                        <mxPoint x="720" y="160" as="sourcePoint"/>
                        <mxPoint x="1210" y="160" as="targetPoint"/>
                    </mxGeometry>
                </mxCell>
                <mxCell id="6" value="Extraction des informations" style="text;html=1;align=center;verticalAlign=middle;resizable=0;points=[];autosize=1;strokeColor=none;fillColor=none;fontSize=30;" vertex="1" parent="1">
                    <mxGeometry x="770" y="100" width="380" height="40" as="geometry"/>
                </mxCell>
                <mxCell id="7" value="" style="endArrow=classic;html=1;fontSize=30;strokeWidth=7;" edge="1" parent="1">
                    <mxGeometry width="50" height="50" relative="1" as="geometry">
                        <mxPoint x="2360" y="160" as="sourcePoint"/>
                        <mxPoint x="2850" y="160" as="targetPoint"/>
                    </mxGeometry>
                </mxCell>
                <mxCell id="8" value="&lt;font color=&quot;#0000ff&quot;&gt;Type: Overflow&lt;br&gt;&lt;/font&gt;&lt;font color=&quot;#ff0000&quot;&gt;Zone: Tas&lt;br&gt;&lt;/font&gt;&lt;font color=&quot;#00ff00&quot;&gt;Compagnie: AT&amp;amp;T&lt;br&gt;&lt;/font&gt;&lt;font color=&quot;#ffff00&quot;&gt;Effet: Execution&lt;/font&gt;" style="text;html=1;align=center;verticalAlign=middle;resizable=0;points=[];autosize=1;fontSize=30;" vertex="1" parent="1">
                    <mxGeometry x="2930" y="90" width="260" height="150" as="geometry"/>
                </mxCell>
                <mxCell id="9" value="InterprÃ©tation des informations" style="text;html=1;align=center;verticalAlign=middle;resizable=0;points=[];autosize=1;strokeColor=none;fillColor=none;fontSize=30;" vertex="1" parent="1">
                    <mxGeometry x="2400" y="100" width="420" height="40" as="geometry"/>
                </mxCell>
            </root>
        </mxGraphModel>
    </diagram>
</mxfile>